<?xml version="1.0" encoding="utf-8"?>
<!-- Generator: Adobe Illustrator 27.0.1, SVG Export Plug-In . SVG Version: 6.00 Build 0)  -->
<svg version="1.1" id="Calque_1" xmlns="http://www.w3.org/2000/svg" xmlns:xlink="http://www.w3.org/1999/xlink" x="0px" y="0px"
	 viewBox="0 0 70.87 88" style="enable-background:new 0 0 70.87 88;" xml:space="preserve">
<style type="text/css">
	.st0{fill:#A40F2B;}
	.st1{fill:#737373;}
	.st2{fill:#999999;}
	.st3{fill:#FFFFFF;}
</style>
<g>
	<g>
		<g id="Lyon_5_">
			<path d="M46.02,77.97V72.8h0.46v4.74h2.6v0.43H46.02z"/>
			<path d="M50.25,75.73l-1.9-2.93h0.59l1.58,2.5l1.58-2.5h0.5l-1.89,2.92v2.25h-0.46V75.73z"/>
			<path d="M54.91,78.08c-1.48,0-2.31-1.08-2.31-2.69c0-1.61,0.83-2.69,2.31-2.69c1.48,0,2.3,1.08,2.3,2.69
				C57.21,76.99,56.39,78.08,54.91,78.08z M54.91,77.64c1.29,0,1.8-1.13,1.8-2.26c0-1.13-0.51-2.26-1.8-2.26
				c-1.29,0-1.8,1.13-1.8,2.26C53.11,76.52,53.62,77.64,54.91,77.64z"/>
			<path d="M58.35,72.8h0.53l2.85,4.54h0.01V72.8h0.46v5.17h-0.59l-2.79-4.47h-0.01v4.47h-0.46V72.8z"/>
		</g>
		<g id="Centrale_5_">
			<path class="st0" d="M11.48,74.2c-0.03-0.18-0.12-0.9-1.12-0.9c-1.25,0-1.47,1.28-1.47,2.13c0,0.97,0.28,2.03,1.46,2.03
				c0.31,0,0.62-0.08,0.84-0.31c0.19-0.2,0.23-0.42,0.25-0.54h0.79c-0.11,1.01-1.04,1.44-1.93,1.44c-1.82,0-2.17-1.6-2.17-2.61
				c0-1.09,0.42-2.71,2.26-2.71c0.73,0,1.76,0.29,1.86,1.47H11.48z"/>
			<path class="st0" d="M13.06,72.8h3.24v0.61h-2.52v1.61h2.4v0.6h-2.4v1.72h2.58v0.63h-3.3V72.8z"/>
			<path class="st0" d="M17.57,72.8h0.99l2.54,4.28V72.8h0.66v5.17h-0.92l-2.63-4.39v4.39h-0.65V72.8z"/>
			<path class="st0" d="M24.16,77.97v-4.56h-1.73V72.8h4.17v0.61h-1.73v4.56H24.16z"/>
			<path class="st0" d="M27.27,72.8h1.84c0.27,0,0.81,0,1.19,0.25c0.39,0.24,0.57,0.64,0.57,1.05c0,0.37-0.14,0.69-0.37,0.92
				c-0.22,0.22-0.45,0.29-0.61,0.33c0.49,0.13,0.72,0.35,0.79,1c0.07,0.61,0.12,1.05,0.32,1.62h-0.77
				c-0.12-0.34-0.19-0.97-0.24-1.37c-0.09-0.75-0.27-0.97-1.13-0.97h-0.9v2.33h-0.71V72.8z M27.97,75.02h1.13
				c0.08,0,0.49,0,0.68-0.11c0.1-0.06,0.35-0.24,0.35-0.67c0-0.84-0.74-0.84-1.03-0.84h-1.13V75.02z"/>
			<path class="st0" d="M33.67,72.8h0.77l2.09,5.17h-0.78l-0.56-1.35h-2.4l-0.56,1.35h-0.74L33.67,72.8z M33.02,76.04h1.95
				l-0.95-2.53L33.02,76.04z"/>
			<path class="st0" d="M37.26,72.8h0.71v4.53l2.4,0v0.64h-3.11V72.8z"/>
			<path class="st0" d="M41.12,72.8h3.24v0.61h-2.52v1.61h2.4v0.6h-2.4v1.72h2.58v0.63h-3.3V72.8z"/>
		</g>
		<g id="Ecole_6_">
			<path class="st1" d="M8.38,67.2h2.67v0.5H8.97v1.33h1.98v0.5H8.97v1.42h2.13v0.52H8.38V67.2z M10.49,65.97l-0.71,0.85H9.39
				l0.48-0.85H10.49z"/>
			<path class="st1" d="M14.62,68.35c-0.02-0.15-0.1-0.74-0.92-0.74c-1.02,0-1.21,1.05-1.21,1.76c0,0.8,0.23,1.67,1.2,1.67
				c0.26,0,0.51-0.07,0.69-0.25c0.15-0.17,0.19-0.35,0.21-0.45h0.65c-0.09,0.84-0.86,1.19-1.59,1.19c-1.5,0-1.79-1.32-1.79-2.15
				c0-0.89,0.35-2.23,1.86-2.23c0.6,0,1.45,0.24,1.53,1.21H14.62z"/>
			<path class="st1" d="M16.36,67.66c0.44-0.48,1.03-0.57,1.42-0.57c1.18,0,1.92,0.75,1.92,2.2c0,1.13-0.46,2.27-1.97,2.27
				c-1.45,0-1.92-1.03-1.92-2.2C15.82,68.87,15.9,68.16,16.36,67.66z M16.81,70.67c0.24,0.3,0.61,0.38,0.94,0.38
				c0.35,0,0.69-0.09,0.94-0.38c0.35-0.43,0.39-1.1,0.39-1.39c0-0.97-0.32-1.7-1.29-1.7c-1.08,0-1.35,0.87-1.35,1.74
				C16.44,69.78,16.52,70.3,16.81,70.67z"/>
			<path class="st1" d="M20.61,67.2h0.58v3.73h1.98v0.53h-2.56V67.2z"/>
			<path class="st1" d="M23.78,67.2h2.67v0.5h-2.08v1.33h1.98v0.5h-1.98v1.42h2.13v0.52h-2.72V67.2z"/>
		</g>
	</g>
	<g>
		<path class="st2" d="M62.29,41c0.46-2.55,0.55-4.99,0-7.68l-2.95,0.52c-0.27-1.98-0.78-3.88-1.51-5.68l2.78-1.11
			c-0.87-2.43-2.01-4.6-3.84-6.65l-2.34,1.87c-1.21-1.55-2.56-2.9-4.1-4.11l1.85-2.35c-1.97-1.67-4.03-2.96-6.64-3.84l-1.02,2.81
			c-1.79-0.72-3.7-1.25-5.67-1.53l0.43-2.96c-2.54-0.46-4.98-0.55-7.68,0c0.04,0.23,0.52,2.95,0.52,2.95
			c-1.98,0.27-3.88,0.78-5.68,1.5l-1.11-2.78c-2.43,0.86-4.59,2.01-6.65,3.84l1.93,2.3c-1.55,1.2-2.95,2.6-4.16,4.14l-2.35-1.85
			c-1.67,1.97-2.97,4.04-3.84,6.65l2.81,1.02c-0.73,1.79-1.25,3.69-1.53,5.67l-2.96-0.43c-0.46,2.54-0.55,4.98,0,7.68l2.95-0.52
			c0.27,1.98,0.79,3.88,1.51,5.68l-2.78,1.11c0.87,2.43,2.01,4.59,3.84,6.65l2.29-1.93c1.21,1.55,2.6,2.95,4.15,4.16l-1.86,2.35
			c1.97,1.67,4.04,2.97,6.65,3.84l1.02-2.81c1.79,0.73,3.69,1.25,5.68,1.52l-0.43,2.97c2.54,0.46,4.99,0.55,7.68,0l-0.52-2.95
			c1.98-0.28,3.88-0.79,5.68-1.51l1.11,2.78c2.43-0.87,4.59-2.01,6.64-3.84l-1.93-2.29c1.55-1.21,2.95-2.6,4.16-4.15l2.35,1.86
			c1.67-1.97,2.97-4.04,3.84-6.65l-2.81-1.02c0.72-1.79,1.24-3.7,1.53-5.67L62.29,41z M35.43,17.07c6.76,0,12.81,3.43,16.45,8.56
			L47.26,30l1.02,1.47l-12.85,8.49l-12.84-8.49L23.6,30l-4.63-4.37C22.61,20.46,28.63,17.07,35.43,17.07 M50.26,50.71L50.26,50.71
			L50.26,50.71c-3.67,4.02-8.95,6.54-14.83,6.54c-5.87,0-11.15-2.52-14.83-6.54c-3.27-3.57-5.26-8.33-5.26-13.55
			c0-2.88,0.6-5.62,1.7-8.09l1.82,1.61l-1.02,1.24l9.25,5.87l-0.39-0.96l7.11,4.43l-2.41-0.54l-6.32,5.08l-2.15-0.79l-1.16,3.66
			l-1-0.6l-0.17,2.64l2.57-1.15l-0.95-0.57l1.6-1.5l1.36,0.46l9.14-3.61l1.1-1.93l1.1,1.93l9.14,3.61l1.36-0.46l1.6,1.5l-0.95,0.57
			L50.26,50.71l-0.17-2.64l-1,0.6l-1.16-3.66l-2.14,0.79l-6.2-5.08l-2.54,0.54l7.24-4.63l-0.33,1.01l9.06-5.71L52,30.67l1.82-1.61
			c1.12,2.5,1.7,5.18,1.7,8.09C55.52,42.38,53.53,47.14,50.26,50.71"/>
		<polygon class="st0" points="45.78,45.88 35.3,52.86 25.13,45.88 25.13,23.64 45.78,23.64 		"/>
		<path class="st3" d="M42.04,40.42c-0.39-0.17-0.73-0.34-0.23-0.87c0.5-0.54,0.28-0.62-0.62-0.23c-0.9,0.39-1.86,0.17-1.86,0.17
			c0.01,0.09-0.05,0.33-0.12,0.58c0.21-0.83,0.18-1.69-0.5-2.22c0.33,0.24,0.42,0.48,0.42,0.48l0.54-0.31
			c0.54-0.31,1.19-0.11,1.83-0.03c0.65,0.08-0.06-0.45-0.39-0.79c-0.34-0.34,0.31-0.51,0.84-1.1c0.55-0.61-0.87-0.03-0.87-0.03
			s-0.65,0.39-0.76-0.17c-0.11-0.56-0.45-1.24-0.51,0.09c-0.06,1.33-1.39,1.67-1.39,1.67c-1.02-0.51-2.28-0.68-1.82-0.76
			c0.73-0.13,0.53-0.15,0.77-0.21c0.32-0.06,0.55,0.41,0.51,0.29c-0.03-0.1-0.03-0.23-0.01-0.36c0.2-0.19,0.06-0.74,0.06-0.74
			l-0.08,0.01h-0.02c-0.01,0-0.02-0.01-0.03-0.01c-0.02,0.01-0.04,0.01-0.06,0.01h-0.01l-0.57,0.04c-0.19-0.02-0.21-0.1-0.21-0.1
			s-0.24-0.45-0.07-0.5c0.22-0.06,0.64,0.29,0.9,0.3c0.27,0,0.42-0.5,0.05-0.97c0,0,0.18-0.36-0.16-0.39
			c-0.34-0.02-0.93-0.05-1.2-0.22c-0.26-0.16-0.32-0.31-0.82-0.25c-0.1,0-0.64,0.26-0.97,0.33c-0.01,0-0.24-0.08-0.25-0.08
			c-0.1,0.02-0.28-0.2-0.79-0.34c0,0-0.31-0.12-0.02,1.69c-0.31,0.46-0.28,0.41-0.59,0.8c0,0,0.28,0.39,0.34,0.59l-0.48,0.65
			l0.7,0.39l-0.48,0.76c0,0,0.25,0.2,0.7,0.45c-0.05,0.04-0.25,0.28-0.25,0.28s0.39,1.44-0.45,1.82C32.29,41.55,32,41.76,32,41.76
			s-0.38,0.47,0.13-1.56c0.51-2.03,0.21-6.17-2.28-5.92c-2.49,0.25-1.6,1.86-1.35,2.37c0.25,0.51,0.8,1.52,0.42,2.7
			c-0.43,1.34,0.05,1.01,0.29,0.34c0.26-0.68,1.46-1.71,1.02-3.64c-0.38-1.65,0.25-1.18,0.46-1.01c0,0,2.24,1.14,0.25,5.32
			c-0.38,0.8-0.34,1.27,0,1.94c0,0,0.26,0.42-0.21,1.1c0,0,0.85,1.48,0.38,2.37c-0.46,0.88-0.13,0.97,0.38,1.56
			c0.51,0.59,1.39,1.27,1.39,1.27h1.86c0,0,0.34-1.27-1.1-1.27c-0.76,0-1.06-0.6-1.06-0.6s-0.46-0.59,0.38-0.71
			c1.27-0.19,1.1,0.08,1.1,0.08l1.18-0.98c0,0,0.72,0.43,0.55,1.31c-0.17,0.89,0.17,0.97,0.72,1.61h2.5c0,0,0.38-1.23-1.31-1.06
			c0,0-0.97-0.17-0.25-1.39c0.72-1.23-1.1-2.32-1.31-2.53c0,0-0.25-0.3,0.17-0.34c0.42-0.04,0.97-0.29,1.14-0.63
			c0,0,0.55,0.08,0.63,0.38c0,0,0.64-0.92,1.01-1.97c-0.04,0.11-0.06,0.19-0.06,0.19c0.4,0.05,1.13,0.14,1.74,0.99
			c0.62,0.84,0.48,0.03,0.48-0.45c0-0.48,0.45-0.25,1.19-0.11C43.16,41.27,42.61,40.68,42.04,40.42 M38.7,37.84
			c-0.05-0.04-0.11-0.08-0.18-0.12C38.59,37.77,38.65,37.8,38.7,37.84"/>
		<path class="st3" d="M29.05,29.82h1.03c0.02-0.06,0.03-0.13,0.04-0.2h-1.13C29.01,29.69,29.02,29.75,29.05,29.82 M29.02,28.75
			h1.07c-0.02-0.09-0.04-0.15-0.06-0.21h-0.94l0.02-0.07C29.09,28.54,29.05,28.63,29.02,28.75 M28.96,29.13h1.2
			c-0.01-0.08-0.01-0.16-0.03-0.23h-1.14C28.98,28.97,28.96,29.05,28.96,29.13 M28.97,29.47h1.17c0.01-0.07,0.01-0.13,0.01-0.2h-1.2
			C28.96,29.34,28.96,29.41,28.97,29.47 M31.84,29.76c0,0-0.85-1.19-1.04-2.14c-0.2-0.95-0.64-1.22-0.64-1.22s0-0.01,0-0.03
			c0.08-0.12,0.13-0.26,0.13-0.41c0-0.22-0.11-0.42-0.27-0.55l0.02,0.01c0,0,0-0.1,0.2-0.21c0,0,0.17-0.24,0.03-0.17
			c-0.13,0.06-0.3,0.2-0.35,0.31c-0.1-0.05-0.22-0.08-0.33-0.08c-0.12,0-0.23,0.03-0.33,0.08c-0.05-0.11-0.22-0.25-0.35-0.31
			c-0.14-0.06,0.04,0.17,0.04,0.17c0.19,0.1,0.2,0.2,0.2,0.21c-0.16,0.13-0.26,0.32-0.26,0.54c0,0.12,0.04,0.23,0.09,0.33
			c0,0.05,0.01,0.08,0.01,0.08s-0.45,0.28-0.64,1.22c-0.2,0.94-1.05,2.14-1.05,2.14s-0.32,0.69,0.55,0.03
			c0.85-0.65,1.08-1.09,1.3-1.34c0.01-0.01,0.02-0.01,0.02-0.02c0,0,0,0.01-0.01,0.02h0.83l0.01,0.01c0.22,0.25,0.45,0.7,1.31,1.36
			C32.16,30.45,31.84,29.76,31.84,29.76 M29.18,30.17h0.78c0.03-0.07,0.05-0.13,0.08-0.2h-0.94C29.11,30.03,29.14,30.1,29.18,30.17
			 M29.29,30.37c0.32,0.53,0.46,0.18,0.56,0.01c0.01-0.02,0.02-0.04,0.03-0.06h-0.62C29.27,30.33,29.28,30.35,29.29,30.37"/>
		<path class="st3" d="M34.88,29.82h1.03c0.02-0.06,0.04-0.13,0.05-0.2h-1.13C34.84,29.69,34.85,29.75,34.88,29.82 M34.85,28.75
			h1.08c-0.02-0.09-0.04-0.15-0.06-0.21h-0.94l0.02-0.07C34.92,28.54,34.89,28.63,34.85,28.75 M34.79,29.13h1.2
			c-0.01-0.08-0.02-0.16-0.03-0.23h-1.14C34.81,28.97,34.8,29.05,34.79,29.13 M34.8,29.47h1.17c0.01-0.07,0.01-0.13,0.01-0.2h-1.2
			C34.79,29.34,34.8,29.41,34.8,29.47 M37.68,29.76c0,0-0.85-1.19-1.04-2.14c-0.2-0.95-0.65-1.22-0.65-1.22s0-0.01,0.01-0.03
			c0.08-0.12,0.13-0.26,0.13-0.41c0-0.22-0.11-0.42-0.27-0.55l0.02,0.01c0,0,0-0.1,0.2-0.21c0,0,0.18-0.24,0.04-0.17
			c-0.13,0.06-0.31,0.2-0.35,0.31c-0.1-0.05-0.21-0.08-0.33-0.08c-0.12,0-0.23,0.03-0.32,0.08c-0.05-0.11-0.22-0.25-0.35-0.31
			c-0.14-0.06,0.04,0.17,0.04,0.17c0.19,0.1,0.19,0.2,0.19,0.21c-0.15,0.13-0.26,0.32-0.26,0.54c0,0.12,0.04,0.23,0.09,0.33
			c0.01,0.05,0.02,0.08,0.02,0.08s-0.45,0.28-0.65,1.22c-0.2,0.94-1.04,2.14-1.04,2.14s-0.32,0.69,0.55,0.03
			c0.84-0.65,1.07-1.09,1.3-1.34c0-0.01,0.01-0.01,0.01-0.02c0,0,0,0.01-0.01,0.02h0.84l0.01,0.01c0.22,0.25,0.45,0.7,1.31,1.36
			C37.99,30.45,37.68,29.76,37.68,29.76 M35.01,30.17h0.78c0.03-0.07,0.05-0.13,0.08-0.2h-0.94C34.95,30.03,34.98,30.1,35.01,30.17
			 M35.13,30.37c0.32,0.53,0.46,0.18,0.56,0.01c0.01-0.02,0.02-0.04,0.03-0.06h-0.63C35.11,30.33,35.11,30.35,35.13,30.37"/>
		<path class="st3" d="M40.82,29.82h1.03c0.02-0.06,0.03-0.13,0.05-0.2h-1.14C40.78,29.69,40.8,29.75,40.82,29.82 M40.79,28.75h1.08
			c-0.02-0.09-0.04-0.15-0.06-0.21h-0.94l0.02-0.07C40.86,28.54,40.83,28.63,40.79,28.75 M40.74,29.13h1.19
			c0-0.08-0.01-0.16-0.03-0.23h-1.14C40.75,28.97,40.74,29.05,40.74,29.13 M40.74,29.47h1.17c0.01-0.07,0.01-0.13,0.01-0.2h-1.2
			C40.73,29.34,40.74,29.41,40.74,29.47 M43.62,29.76c0,0-0.85-1.19-1.04-2.14c-0.2-0.95-0.64-1.22-0.64-1.22s0-0.01,0-0.03
			c0.08-0.12,0.13-0.26,0.13-0.41c0-0.22-0.1-0.42-0.26-0.55l0.02,0.01c0,0,0-0.1,0.2-0.21c0,0,0.18-0.24,0.04-0.17
			c-0.13,0.06-0.31,0.2-0.35,0.31c-0.1-0.05-0.22-0.08-0.33-0.08c-0.12,0-0.23,0.03-0.32,0.08c-0.05-0.11-0.22-0.25-0.35-0.31
			c-0.13-0.06,0.04,0.17,0.04,0.17c0.19,0.1,0.2,0.2,0.2,0.21c-0.16,0.13-0.26,0.32-0.26,0.54c0,0.12,0.04,0.23,0.09,0.33
			c0,0.05,0.01,0.08,0.01,0.08s-0.45,0.28-0.65,1.22c-0.2,0.94-1.04,2.14-1.04,2.14s-0.32,0.69,0.54,0.03
			c0.84-0.65,1.08-1.09,1.3-1.34c0.01-0.01,0.01-0.01,0.02-0.02c0,0,0,0.01-0.01,0.02h0.83l0,0.01c0.22,0.25,0.45,0.7,1.31,1.36
			C43.94,30.45,43.62,29.76,43.62,29.76 M40.95,30.17h0.78c0.02-0.07,0.05-0.13,0.08-0.2h-0.94C40.89,30.03,40.92,30.1,40.95,30.17
			 M41.07,30.37c0.32,0.53,0.47,0.18,0.56,0.01c0.01-0.02,0.02-0.04,0.03-0.06h-0.62C41.04,30.33,41.05,30.35,41.07,30.37"/>
		<path class="st2" d="M24.86,23.37v22.65l10.29,7.06l0.15,0.1l10.76-7.16V23.37H24.86z M45.51,23.92v7.73H25.4v-7.73H45.51z
			 M35.3,52.53l-9.9-6.79V32.2h20.1v13.53L35.3,52.53z"/>
	</g>
</g>
</svg>
